<?xml version="1.0" encoding="UTF-8"?>
<!DOCTYPE svg PUBLIC "-//W3C//DTD SVG 1.1//EN" "http://www.w3.org/Graphics/SVG/1.1/DTD/svg11.dtd">
<!-- Creator: CorelDRAW 2021 (64-Bit) -->
<svg xmlns="http://www.w3.org/2000/svg" xml:space="preserve" width="210mm" height="297mm" version="1.1" style="shape-rendering:geometricPrecision; text-rendering:geometricPrecision; image-rendering:optimizeQuality; fill-rule:evenodd; clip-rule:evenodd"
viewBox="0 0 21000 29700"
 xmlns:xlink="http://www.w3.org/1999/xlink"
 xmlns:xodm="http://www.corel.com/coreldraw/odm/2003">
 <defs>
  <style type="text/css">
   <![CDATA[
    .fil0 {fill:#0049AE}
    .fil2 {fill:#5B85BC}
    .fil1 {fill:#A4C5F2}
   ]]>
  </style>
 </defs>
 <g id="Layer_x0020_1">
  <metadata id="CorelCorpID_0Corel-Layer"/>
  <g id="_1758212335104">
   <path class="fil0" d="M5490.81 11306.26c87.62,-43.57 214.08,-88.4 307.48,-127.33 552.78,-230.43 1289.32,-295.88 1881.57,-196.88 120.51,20.14 244.75,44.88 355.26,77.61 98.56,29.18 238.46,86.09 339.86,97.04l-1.19 -451.2c208.38,-10.07 439.91,-1.04 650.84,-1.04l1938.87 -9.43c548.38,-3.82 1194.23,27.17 1668.79,288.81 166.52,91.81 234.47,165.74 350.86,292.4 99.69,108.48 176.79,288.65 215.75,436.06 99.16,375.1 63.81,878.05 -174.14,1189.51 -97.96,128.21 -27.77,71.04 -151.73,170.18 -298.83,239.01 -580.33,360.89 -1031.29,424.89 -197.43,28.02 -397.88,41.13 -599.79,48.14 -84.99,2.95 -599.19,0.95 -629.27,15.66 -9.84,9.86 -10.23,-10.27 -4.05,29.65 1.21,7.81 6.41,26.84 8.44,35.41 93.59,395.55 153.09,812.47 125.04,1219.71 -46.51,675.43 -248.59,983.61 -281.82,1178.89 911.85,-3.5 1984.2,-99.95 2764.68,251.26 342.96,154.33 609.99,399.4 719.27,804.48 119.49,442.92 51.88,909.49 -163.93,1234.31 -456.49,687.08 -1597.16,677.09 -2368.08,677.15 -508,0.04 -1016,0.15 -1524,0.15 -184.49,0 -1361.94,10.26 -1513.24,-1.7l-1.83 -446.57c-103.28,50.22 -489.84,528.94 -638.82,658.79l-474.16 491.21c-55.9,54.78 -95.96,111.67 -157.48,160.15 -49.06,-27.28 -442.84,-451.7 -507.65,-521.03 -37.35,-39.95 -56.23,-62.49 -101.28,-102.2l-302.59 -315.33c-85.72,-92.72 -669.99,-709.5 -705.41,-727.55l0.93 674.51 -4.31 2731.02 6178.58 0.6c134.96,9.94 315.23,-3.58 453.66,-7.39 906.5,-24.93 1921.05,-143.77 2728.21,-516.15 294.61,-135.92 338.71,-168.25 604.25,-327.1 124,-74.17 237.97,-177.6 336.63,-247.6 120.74,-85.69 308.34,-292.99 403.3,-401.16 206.44,-235.13 400.23,-566.03 516.93,-871.5 353,-923.97 308.21,-2284.78 -164.91,-3086.21 -180.44,-305.64 -391.87,-532.44 -646.91,-750.37 -83.79,-71.6 -161.57,-135.98 -253.4,-203.48 -334.35,-245.77 -752.91,-465.43 -1207.55,-638.27 14.94,-10.04 34.64,-29.36 57.23,-43.17 191.71,-117.16 412.6,-253.27 578.28,-395.57 92.87,-79.77 141.15,-114.99 225.6,-206.12 179.33,-193.48 330.89,-374.38 466.45,-608.85 587.33,-1015.84 545.15,-2490.8 -26.08,-3434.62 -56.13,-92.74 -119.5,-175.4 -180.25,-251.66 -32.65,-40.97 -68.21,-82 -100.89,-119.05l-439.05 -424.59c-819.49,-637.36 -1646.5,-855.55 -2713.95,-935.38 -275.46,-20.6 -558.12,-27.38 -835.49,-29.21 -143.9,-0.96 -287.89,-0.96 -431.8,-0.38 -133.98,0.53 -296.46,9.65 -426.86,0.19 -46.98,19.89 -3317.16,8.63 -3840.34,8.63 -423.15,0 -853.26,-7.6 -1275.69,0.33l2.47 3201.35z"/>
   <path class="fil0" d="M7015.17 13036.82c591.64,-45.18 1117.7,279.62 1400.33,733.08 487.93,782.84 190.19,1777.54 -615.54,2204.52 -464.75,246.3 -1104.5,202.9 -1541.53,-81.57l-219.12 -170.16c-235.44,-217.6 -467.71,-575.5 -491.11,-1055.69 -22.73,-466.65 136.57,-815.59 411.13,-1134.47 247.47,-287.42 652.95,-464.95 1055.84,-495.71zm87.53 5944.64c49.18,-37.86 65.6,-52.36 106.01,-101.75l356.12 -380.32c19.4,-19.72 37.78,-32.39 56.96,-52.99l518.82 -539.49c62.94,-53.58 149.97,-151.42 207.07,-216.41 34.26,-39.01 65.24,-65.56 101.62,-109.8 69.63,-84.66 -7.12,-16.49 105.7,-106.3 100.94,-80.36 194.71,-222.04 306.43,-328.36 118.31,-112.59 96.56,-80.8 206.22,-217.28 118.71,-147.76 123.3,-102.59 217.39,-205.59 177.12,-193.92 316.41,-380.29 449.88,-608.71 158.46,-271.16 289.09,-598.88 354.25,-915.59 167.08,-812.05 -18.25,-1689.95 -490.36,-2349.92 -139.76,-195.37 -311.03,-412.45 -498.77,-560.01 -37.88,-29.78 -75.61,-66.33 -113.76,-97.64 -506.92,-416.09 -1185.89,-664.25 -1892.05,-658.8 -632.52,4.88 -1152.55,194.48 -1637.43,481.67 -315.66,186.96 -494.81,376.65 -718.25,653.38 -21.89,27.11 -29.49,40.82 -48.27,61.88 -204.7,229.6 -267.44,379.6 -394.76,663.47 -22.39,49.93 -44.85,81.6 -67.22,144.57 -259.53,730.62 -241.79,1588.68 87.42,2299.8 99.79,215.56 192.98,365.13 309.69,537.32 153.03,225.78 415.75,463.63 603.25,666.65l462.71 485.69c19.04,20.31 37.64,32.61 56.97,52.82l150.16 163.38c19.3,19.99 37.75,32.43 56.89,52.93 34.58,37.03 65.78,77.28 100.86,111.02 138.8,133.46 324.94,347.78 459.58,488.74l159.1 162.52c108.57,93.27 327.35,367.69 427.77,423.12z"/>
   <path class="fil1" d="M11660.97 21593.59l-6178.58 -0.6 4.31 -2731.02c-17.92,51.05 -8.91,1205.59 -9.73,1368.27 -0.76,150.39 -18.76,1323.38 3.75,1367.71 78.41,14.25 3024.21,3.62 3095.18,3.62 307.71,0 3027.68,13.35 3085.07,-7.98z"/>
   <path class="fil2" d="M5490.81 11306.26l-2.47 -3201.35c422.43,-7.93 852.54,-0.33 1275.69,-0.33 523.18,0 3793.36,11.26 3840.34,-8.63l-5124.03 0.6 -2.25 3184.43c-0.09,49.01 -2.57,10.06 12.72,25.28z"/>
  </g>
 </g>
</svg>
